<svg xmlns="http://www.w3.org/2000/svg" viewBox="0 0 32 32">
  <rect width="32" height="32" rx="6" fill="#0a0a0a"/>
  <g transform="translate(2, 4) scale(0.58)">
    <circle cx="10" cy="20" r="6" stroke="#c9b896" stroke-width="1.4" fill="none"/>
    <circle cx="10" cy="20" r="2" stroke="#c9b896" stroke-width="0.8" fill="none"/>
    <circle cx="38" cy="20" r="6" stroke="#c9b896" stroke-width="1.4" fill="none"/>
    <circle cx="38" cy="20" r="2" stroke="#c9b896" stroke-width="0.8" fill="none"/>
    <path d="M16 20L19 11L24 8L28 8L32 12L33 17L34 20" stroke="#c9b896" stroke-width="1.4" stroke-linecap="round" stroke-linejoin="round" fill="none"/>
    <path d="M19 11L21 8" stroke="#c9b896" stroke-width="1.2" stroke-linecap="round" fill="none"/>
    <path d="M24 8L22 4L25 3" stroke="#c9b896" stroke-width="1.2" stroke-linecap="round" stroke-linejoin="round" fill="none"/>
    <path d="M28 8L30 5L28 4" stroke="#c9b896" stroke-width="1" stroke-linecap="round" stroke-linejoin="round" fill="none"/>
    <path d="M20 14L26 11L32 12" stroke="#c9b896" stroke-width="1.2" stroke-linecap="round" stroke-linejoin="round" fill="none"/>
    <path d="M22 17L30 15" stroke="#c9b896" stroke-width="1" stroke-linecap="round" fill="none"/>
    <path d="M32 12L36 14L38 15" stroke="#c9b896" stroke-width="1" stroke-linecap="round" stroke-linejoin="round" fill="none"/>
  </g>
</svg>
